<svg data-name="Your Icons" viewBox="0 0 48 48" xmlns="http://www.w3.org/2000/svg"><path d="M37 15H17.15l-1.27-3.64A5 5 0 0011.16 8H8a1 1 0 000 2h3.16A3 3 0 0114 12l1 3 2.43 6.89 2.69 7.75A5 5 0 0024.85 33H30a1 1 0 000-2h-5.15A3 3 0 0122 29h10.77a6.07 6.07 0 005.94-4.74l1.22-5.63A3 3 0 0037 15zm1 3.2l-1.22 5.63a4.08 4.08 0 01-4 3.17H21.35l-2.05-5.8-1.46-4.2H37a1 1 0 01.82.39 1 1 0 01.18.81zM20 33a3 3 0 103 3 3 3 0 00-3-3zm0 4a1 1 0 111-1 1 1 0 01-1 1zm14-4a3 3 0 103 3 3 3 0 00-3-3zm0 4a1 1 0 111-1 1 1 0 01-1 1z" fill="#939598"/></svg>